<?xml version="1.0" encoding="utf-8"?>
<!-- Generator: Adobe Illustrator 24.0.3, SVG Export Plug-In . SVG Version: 6.00 Build 0)  -->
<svg version="1.1" id="Layer_1" xmlns="http://www.w3.org/2000/svg" xmlns:xlink="http://www.w3.org/1999/xlink" x="0px" y="0px"
	 viewBox="0 0 567 202" style="enable-background:new 0 0 567 202;" xml:space="preserve">
<style type="text/css">
	.st0{fill:#002D63;}
	.st1{fill:#0050F0;}
	.st2{fill:#F68B1F;}
</style>
<g>
	<path class="st0" d="M43.8,133.4l5.1-3.2c3.6,5.7,9.8,9,17,9c8.1,0,13.7-4.3,13.7-10.6c0-5.8-5-7.5-14.3-9.5
		c-11.8-2.5-19.5-5.9-19.5-15.3c0-8.2,7.8-14.2,18.6-14.2c9.2,0,16.7,3.6,20.6,9.8l-4.9,3.2c-3.1-5.1-8.2-7.6-15.5-7.6
		c-7.6,0-12.7,3.5-12.7,8.9c0,6.7,7.9,8.5,16.3,10.1c9.6,1.9,17.5,5.2,17.5,14.6c0,9.5-7.9,15.9-19.9,15.9
		C56.6,144.6,48.1,140.3,43.8,133.4z"/>
	<path class="st0" d="M180.9,117.1c0,15.8-11.1,27.4-26.3,27.4c-9.1,0-16.1-3.9-20.4-11.5v26.7h-6.1v-41.5
		c0-17.6,10.1-28.6,26.5-28.6C170,89.5,180.9,100.9,180.9,117.1z M174.8,117.1c0-13-8.3-22.1-20.2-22.1c-12,0-20.4,9-20.4,22.1
		c0,12.7,8.7,21.9,20.4,21.9C166.2,139,174.8,129.8,174.8,117.1z"/>
	<path class="st0" d="M268.4,108.6V145h-6.1v-8.8c-3.7,5.1-9.9,8.2-17.6,8.2c-12.4,0-21-7.9-21-19.2s8.7-19.2,21-19.2
		c7.7,0,13.9,3,17.6,7.8v-5.3c0-8.2-6.3-13.6-16.1-13.6c-7.1,0-13.4,3.1-17.3,8.3l-4.5-3.2c4.2-6.5,12.5-10.5,21.9-10.5
		C259.5,89.7,268.4,97.2,268.4,108.6z M262.1,125c0-8.1-6.7-13.7-16.3-13.7c-9.6,0-16.1,5.6-16.1,14c0,8.3,6.4,14,15.8,14
		C255.2,139.3,262.1,133.4,262.1,125z"/>
	<path class="st0" d="M337.9,90.6V96h-0.7c-12.6,0-20.2,8.3-20.2,22.3v26.4h-6.1V90.6h5.9v12c2.9-8,9.6-12,20.4-12H337.9z"/>
	<path class="st0" d="M380.4,144.8V74h6.1v39.2h0.4l25-22.6h8.9l-27.5,23.7c13.6,2.4,23.9,14.9,27.8,30.6h-6
		c-3.1-13.6-14-25.4-28.2-26.8h-0.4v26.8H380.4z"/>
	<g>
		<path class="st1" d="M64.5,64.3c0,3.9-3.2,7.1-7.1,7.1c-3.9,0-7.1-3.2-7.1-7.1v-7.1h7.1v-7.1h-7.1V43h-7.1v21.3
			c0,7.8,6.3,14.2,14.2,14.2c7.8,0,14.2-6.3,14.2-14.2H64.5z"/>
		<path class="st2" d="M85.8,64.3c0,3.9-3.2,7.1-7.1,7.1c-3.9,0-7.1-3.2-7.1-7.1v-7.1h7.1v-7.1h-7.1V43h-7.1v21.3
			c0,7.8,6.3,14.2,14.2,14.2c7.8,0,14.2-6.3,14.2-14.2H85.8z"/>
		<path class="st0" d="M99.9,50.1c-2.6,0-5,0.7-7.1,1.9v-9h-7.1v21.3c0,7.8,6.3,14.2,14.2,14.2c7.8,0,14.2-6.3,14.2-14.2
			C114.1,56.5,107.8,50.1,99.9,50.1 M99.9,71.4c-3.9,0-7.1-3.2-7.1-7.1c0-3.9,3.2-7.1,7.1-7.1c3.9,0,7.1,3.2,7.1,7.1
			C107,68.2,103.8,71.4,99.9,71.4"/>
	</g>
	<g>
		<g>
			<path class="st2" d="M468.3,110.2l-17.1-9.9c-1.7-1-2.3-3.2-1.3-5l0,0c1-1.7,3.2-2.3,5-1.3l17.1,9.9c1.7,1,2.3,3.2,1.3,5l0,0
				C472.2,110.6,470,111.2,468.3,110.2z"/>
		</g>
		<path class="st1" d="M522.6,133.2l-30.2-17.5c-1.1-0.7-1.8-1.9-1.8-3.2V77.6c0-2-1.6-3.6-3.6-3.6c-2,0-3.6,1.6-3.6,3.6v34.9
			c0,1.3-0.7,2.5-1.8,3.2l-30.3,17.5c-1.7,1-2.3,3.2-1.3,5c1,1.7,3.2,2.3,5,1.3L485,122c1.1-0.7,2.5-0.7,3.7,0l30.2,17.5
			c1.7,1,4,0.4,5-1.3C524.9,136.4,524.3,134.2,522.6,133.2z"/>
		<g>
			<path class="st0" d="M505.4,110.2l17.1-9.9c1.7-1,2.3-3.2,1.3-5l0,0c-1-1.7-3.2-2.3-5-1.3l-17.1,9.9c-1.7,1-2.3,3.2-1.3,5l0,0
				C501.4,110.6,503.6,111.2,505.4,110.2z"/>
		</g>
		<g>
			<path class="st0" d="M483.3,136.2l0,19.8c0,2,1.6,3.6,3.6,3.6l0,0c2,0,3.6-1.6,3.6-3.6l0-19.8c0-2-1.6-3.6-3.6-3.6l0,0
				C484.9,132.5,483.3,134.1,483.3,136.2z"/>
		</g>
	</g>
</g>
</svg>
